<svg width="113" height="18" viewBox="0 0 113 18" fill="none" xmlns="http://www.w3.org/2000/svg">
<g clip-path="url(#clip0)">
<rect width="113" height="18" fill="white"/>
<path d="M71.536 3.432V8.496H77.296V10.608H71.536V15.864H78.016V18H68.8V1.296H78.016V3.432H71.536ZM79.2739 11.328C79.2739 10 79.5459 8.824 80.0899 7.8C80.6499 6.776 81.4019 5.984 82.3459 5.424C83.3059 4.848 84.3619 4.56 85.5139 4.56C86.5539 4.56 87.4579 4.768 88.2259 5.184C89.0099 5.584 89.6339 6.088 90.0979 6.696V4.776H92.8579V18H90.0979V16.032C89.6339 16.656 89.0019 17.176 88.2019 17.592C87.4019 18.008 86.4899 18.216 85.4659 18.216C84.3299 18.216 83.2899 17.928 82.3459 17.352C81.4019 16.76 80.6499 15.944 80.0899 14.904C79.5459 13.848 79.2739 12.656 79.2739 11.328ZM90.0979 11.376C90.0979 10.464 89.9059 9.672 89.5219 9C89.1539 8.328 88.6659 7.816 88.0579 7.464C87.4499 7.112 86.7939 6.936 86.0899 6.936C85.3859 6.936 84.7299 7.112 84.1219 7.464C83.5139 7.8 83.0179 8.304 82.6339 8.976C82.2659 9.632 82.0819 10.416 82.0819 11.328C82.0819 12.24 82.2659 13.04 82.6339 13.728C83.0179 14.416 83.5139 14.944 84.1219 15.312C84.7459 15.664 85.4019 15.84 86.0899 15.84C86.7939 15.84 87.4499 15.664 88.0579 15.312C88.6659 14.96 89.1539 14.448 89.5219 13.776C89.9059 13.088 90.0979 12.288 90.0979 11.376ZM98.4436 7.008V14.328C98.4436 14.824 98.5556 15.184 98.7796 15.408C99.0196 15.616 99.4196 15.72 99.9796 15.72H101.66V18H99.4996C98.2676 18 97.3236 17.712 96.6676 17.136C96.0116 16.56 95.6836 15.624 95.6836 14.328V7.008H94.1236V4.776H95.6836V1.488H98.4436V4.776H101.66V7.008H98.4436ZM107.733 18.216C106.709 18.216 105.789 18.032 104.973 17.664C104.157 17.28 103.509 16.768 103.029 16.128C102.549 15.472 102.293 14.744 102.261 13.944H105.093C105.141 14.552 105.405 15.056 105.885 15.456C106.381 15.856 106.997 16.056 107.733 16.056C108.501 16.056 109.093 15.904 109.509 15.6C109.941 15.28 110.157 14.856 110.157 14.328C110.157 13.848 109.917 13.48 109.437 13.224C108.957 12.968 108.213 12.712 107.205 12.456C106.229 12.184 105.429 11.928 104.805 11.688C104.197 11.432 103.669 11.048 103.221 10.536C102.773 10.008 102.549 9.328 102.549 8.496C102.549 7.776 102.749 7.12 103.149 6.528C103.549 5.92 104.125 5.44 104.877 5.088C105.645 4.736 106.541 4.56 107.565 4.56C109.069 4.56 110.277 4.944 111.189 5.712C112.117 6.464 112.613 7.496 112.677 8.808H109.941C109.893 8.168 109.653 7.664 109.221 7.296C108.789 6.912 108.205 6.72 107.469 6.72C106.749 6.72 106.197 6.872 105.813 7.176C105.429 7.464 105.237 7.856 105.237 8.352C105.237 8.704 105.365 9 105.621 9.24C105.877 9.48 106.197 9.672 106.581 9.816C106.965 9.944 107.509 10.104 108.213 10.296C109.173 10.552 109.957 10.808 110.565 11.064C111.173 11.32 111.693 11.712 112.125 12.24C112.557 12.752 112.773 13.424 112.773 14.256C112.773 15.008 112.573 15.688 112.173 16.296C111.773 16.888 111.189 17.36 110.421 17.712C109.669 18.048 108.773 18.216 107.733 18.216Z" fill="#60B70A"/>
<path d="M0.032 9.624C0.032 7.992 0.4 6.528 1.136 5.232C1.872 3.92 2.872 2.896 4.136 2.16C5.416 1.424 6.832 1.056 8.384 1.056C10.208 1.056 11.8 1.496 13.16 2.376C14.52 3.256 15.512 4.504 16.136 6.12H13.52C13.056 5.144 12.384 4.392 11.504 3.864C10.64 3.32 9.6 3.048 8.384 3.048C7.216 3.048 6.168 3.32 5.24 3.864C4.312 4.392 3.584 5.16 3.056 6.168C2.528 7.16 2.264 8.312 2.264 9.624C2.264 10.936 2.528 12.088 3.056 13.08C3.584 14.072 4.312 14.84 5.24 15.384C6.168 15.912 7.216 16.176 8.384 16.176C9.6 16.176 10.64 15.912 11.504 15.384C12.384 14.856 13.056 14.104 13.52 13.128H16.136C15.512 14.728 14.52 15.968 13.16 16.848C11.8 17.712 10.208 18.144 8.384 18.144C6.832 18.144 5.416 17.784 4.136 17.064C2.872 16.328 1.872 15.312 1.136 14.016C0.4 12.72 0.032 11.256 0.032 9.624ZM20.3711 0.24V18H18.1871V0.24H20.3711ZM28.6293 18.216C27.3973 18.216 26.2773 17.936 25.2693 17.376C24.2773 16.816 23.4933 16.024 22.9173 15C22.3573 13.96 22.0773 12.76 22.0773 11.4C22.0773 10.056 22.3653 8.872 22.9413 7.848C23.5333 6.808 24.3333 6.016 25.3413 5.472C26.3493 4.912 27.4773 4.632 28.7253 4.632C29.9733 4.632 31.1013 4.912 32.1093 5.472C33.1173 6.016 33.9093 6.8 34.4853 7.824C35.0773 8.848 35.3733 10.04 35.3733 11.4C35.3733 12.76 35.0693 13.96 34.4613 15C33.8693 16.024 33.0613 16.816 32.0373 17.376C31.0133 17.936 29.8773 18.216 28.6293 18.216ZM28.6293 16.368C29.4133 16.368 30.1493 16.184 30.8373 15.816C31.5253 15.432 32.0773 14.864 32.4933 14.112C32.9253 13.36 33.1413 12.456 33.1413 11.4C33.1413 10.344 32.9333 9.448 32.5173 8.712C32.1013 7.96 31.5573 7.4 30.8853 7.032C30.2133 6.664 29.4853 6.48 28.7013 6.48C27.9013 6.48 27.1653 6.664 26.4933 7.032C25.8373 7.4 25.3093 7.96 24.9093 8.712C24.5093 9.448 24.3093 10.344 24.3093 11.4C24.3093 12.472 24.5013 13.384 24.8853 14.136C25.2853 14.872 25.8133 15.432 26.4693 15.816C27.1253 16.184 27.8453 16.368 28.6293 16.368ZM43.4529 4.608C45.0529 4.608 46.3489 5.096 47.3409 6.072C48.3329 7.032 48.8289 8.424 48.8289 10.248V18H46.6689V10.56C46.6689 9.248 46.3409 8.248 45.6849 7.56C45.0289 6.856 44.1329 6.504 42.9969 6.504C41.8449 6.504 40.9249 6.864 40.2369 7.584C39.5649 8.304 39.2289 9.352 39.2289 10.728V18H37.0449V4.848H39.2289V6.72C39.6609 6.048 40.2449 5.528 40.9809 5.16C41.7329 4.792 42.5569 4.608 43.4529 4.608ZM63.1964 10.872C63.1964 11.272 63.1724 11.704 63.1244 12.168H52.6124C52.6764 13.464 53.1084 14.488 53.9084 15.24C54.7244 15.992 55.7164 16.368 56.8844 16.368C57.8284 16.368 58.6124 16.152 59.2364 15.72C59.8764 15.272 60.3244 14.68 60.5804 13.944H62.9324C62.5804 15.208 61.8764 16.24 60.8204 17.04C59.7644 17.824 58.4524 18.216 56.8844 18.216C55.6364 18.216 54.5164 17.936 53.5244 17.376C52.5484 16.816 51.7804 16.024 51.2204 15C50.6604 13.96 50.3804 12.76 50.3804 11.4C50.3804 10.04 50.6524 8.848 51.1964 7.824C51.7404 6.8 52.5004 6.016 53.4764 5.472C54.4684 4.912 55.6044 4.632 56.8844 4.632C58.1324 4.632 59.2284 4.904 60.1724 5.448C61.1324 5.992 61.8764 6.736 62.4044 7.68C62.9324 8.624 63.1964 9.688 63.1964 10.872ZM60.9404 10.584C60.9404 9.72 60.7564 8.984 60.3884 8.376C60.0204 7.752 59.5164 7.28 58.8764 6.96C58.2524 6.64 57.5564 6.48 56.7884 6.48C55.6684 6.48 54.7164 6.848 53.9324 7.584C53.1484 8.304 52.7164 9.304 52.6364 10.584H60.9404Z" fill="#4A4A4A"/>
</g>
<defs>
<clipPath id="clip0">
<rect width="113" height="18" fill="white"/>
</clipPath>
</defs>
</svg>
